<svg xmlns="http://www.w3.org/2000/svg" id="baseline-settings-20px" width="30" height="30" viewBox="0 0 30 30">
    <defs>
        <style>
            .cls-1{fill:none}.cls-2{fill:#fff}
        </style>
    </defs>
    <path id="Path_160" d="M0 0h30v30H0z" class="cls-1" data-name="Path 160"/>
    <path id="Path_161" d="M22.814 15.17a9.79 9.79 0 0 0 .075-1.17 7.4 7.4 0 0 0-.09-1.17l2.535-1.98a.62.62 0 0 0 .15-.765l-2.4-4.155a.61.61 0 0 0-.735-.27l-2.985 1.2a8.788 8.788 0 0 0-2.025-1.17l-.45-3.18a.6.6 0 0 0-.6-.51h-4.8a.584.584 0 0 0-.585.51l-.45 3.18a9.023 9.023 0 0 0-2.025 1.17l-2.985-1.2a.593.593 0 0 0-.735.27l-2.4 4.155a.581.581 0 0 0 .15.765l2.535 1.98a7.069 7.069 0 0 0-.015 2.34l-2.535 1.98a.62.62 0 0 0-.15.765l2.4 4.155a.61.61 0 0 0 .735.27l2.985-1.2a8.788 8.788 0 0 0 2.025 1.17l.45 3.18a.61.61 0 0 0 .6.51h4.8a.573.573 0 0 0 .585-.51l.45-3.18a9.023 9.023 0 0 0 2.025-1.17l2.985 1.2a.593.593 0 0 0 .735-.27l2.4-4.155a.581.581 0 0 0-.15-.765l-2.5-1.98zm-8.925 3.33a4.5 4.5 0 1 1 4.5-4.5 4.513 4.513 0 0 1-4.5 4.5z" class="cls-2" data-name="Path 161" transform="translate(1.111 1)"/>
</svg>
