<svg xmlns="http://www.w3.org/2000/svg" id="baseline-account_box-24px" width="30" height="30" viewBox="0 0 30 30">
    <defs>
        <style>
            .cls-1{fill:#fff}.cls-2{fill:none}
        </style>
    </defs>
    <path id="Path_156" d="M3 5.5V23a2.5 2.5 0 0 0 2.5 2.5H23a2.507 2.507 0 0 0 2.5-2.5V5.5A2.507 2.507 0 0 0 23 3H5.5A2.5 2.5 0 0 0 3 5.5zm15 5a3.75 3.75 0 1 1-3.75-3.75A3.745 3.745 0 0 1 18 10.5zm-11.25 10c0-2.5 5-3.875 7.5-3.875s7.5 1.375 7.5 3.875v1.25h-15z" class="cls-1" data-name="Path 156" transform="translate(.75 .75)"/>
    <path id="Path_157" d="M0 0h30v30H0z" class="cls-2" data-name="Path 157"/>
</svg>
